<svg xmlns="http://www.w3.org/2000/svg" xmlns:xlink="http://www.w3.org/1999/xlink" version="1.1" x="0px" y="0px" viewBox="0 0 128 128" style="enable-background:new 0 0 128 128;" xml:space="preserve">
<path d="M72.328,30.353H34.227c-3.063,0-5.554-2.145-5.554-4.78v-2.051c0-3.932,2.817-7.131,6.28-7.131h37.375c0.552,0,1-0.447,1-1  s-0.448-1-1-1H34.953c-4.566,0-8.28,4.096-8.28,9.131v42.982c0,5.035,3.714,9.131,8.28,9.131h5.843v9.973l5.651-2.791l5.651,2.791  v-9.973h20.23c0.552,0,1-0.447,1-1V31.353C73.328,30.801,72.88,30.353,72.328,30.353z M28.672,66.505V30.164  c1.381,1.346,3.36,2.189,5.554,2.189h0.434v41.265C31.333,73.443,28.672,70.324,28.672,66.505z M71.328,73.635H36.66V32.353h34.667  V73.635z"/>
<path d="M72.328,22.692H35.66c-0.552,0-1,0.447-1,1s0.448,1,1,1h36.667c0.552,0,1-0.447,1-1S72.88,22.692,72.328,22.692z"/>
</svg>