<svg width="80" height="80" viewBox="0 0 80 80" fill="none" xmlns="http://www.w3.org/2000/svg">
<path d="M58.4641 23.4479H26.3642C23.7836 23.4479 21.685 21.6408 21.685 19.4208V17.6928C21.685 14.3801 24.0583 11.685 26.9759 11.685H58.4641C58.9292 11.685 59.3066 11.3084 59.3066 10.8425C59.3066 10.3766 58.9292 10 58.4641 10H26.9759C23.129 10 20 13.4509 20 17.6928V53.905C20 58.1469 23.129 61.5978 26.9759 61.5978H31.8986V70L36.6595 67.6486L41.4204 70V61.5978H58.4641C58.9292 61.5978 59.3066 61.2212 59.3066 60.7553V24.2904C59.3066 23.8254 58.9292 23.4479 58.4641 23.4479ZM21.6841 53.9058V23.2887C22.8476 24.4227 24.5149 25.1329 26.3634 25.1329H26.729V59.8985C23.926 59.751 21.6841 57.1233 21.6841 53.9058ZM57.6216 59.9128H28.414V25.1329H57.6208L57.6216 59.9128Z" fill="black"/>
<path d="M58.4639 16.9934H27.5713C27.1062 16.9934 26.7288 17.37 26.7288 17.8359C26.7288 18.3018 27.1062 18.6784 27.5713 18.6784H58.463C58.9281 18.6784 59.3055 18.3018 59.3055 17.8359C59.3055 17.37 58.9289 16.9934 58.4639 16.9934Z" fill="black"/>
</svg>
