<svg width="20" height="20" viewBox="0 0 20 20" fill="none" xmlns="http://www.w3.org/2000/svg">
<g clip-path="url(#clip0_7_21)">
<rect width="20" height="20" fill="white"/>
<path d="M17.2249 17.2719C17.2249 19.5029 18.4524 19.291 14.5074 19.291C10.5626 19.291 2.60266 20.1755 2.60266 17.9444C2.60266 15.7133 6.1372 10.539 10.0821 10.539C14.0269 10.539 17.2249 15.0408 17.2249 17.2719Z" fill="#FDCE78"/>
<path d="M19.7463 9.37374L18.3308 7.98479L10.587 0.253556C10.5123 0.173514 10.422 0.109719 10.3217 0.0661094C10.2215 0.0224994 10.1134 0 10.0042 0C9.89494 0 9.78686 0.0224994 9.68661 0.0661094C9.58636 0.109719 9.49607 0.173514 9.42132 0.253556L1.67756 7.90112L0.295343 9.27333C0.207693 9.34773 0.13629 9.43953 0.0856152 9.54297C0.0349399 9.64641 0.00608594 9.75926 0.000863158 9.87443C-0.00435962 9.98961 0.0141617 10.1046 0.0552651 10.2123C0.0963685 10.3199 0.159167 10.4179 0.23972 10.5C0.320274 10.5821 0.416843 10.6465 0.52337 10.6894C0.629897 10.7322 0.744083 10.7524 0.858763 10.7488C0.973442 10.7452 1.08614 10.7178 1.18979 10.6684C1.29344 10.6189 1.38579 10.5485 1.46107 10.4615V19.1633C1.46107 19.3852 1.5488 19.598 1.70495 19.7549C1.8611 19.9118 2.0729 20 2.29373 20H17.7646C17.9854 20 18.1972 19.9118 18.3534 19.7549C18.5095 19.598 18.5972 19.3852 18.5972 19.1633V10.5451C18.7555 10.6937 18.9635 10.7773 19.1801 10.7794C19.4052 10.7789 19.6208 10.6886 19.7796 10.5284C19.9268 10.3705 20.0059 10.1605 19.9997 9.94417C19.9934 9.72789 19.9024 9.52285 19.7463 9.37374ZM7.30635 18.4102V11.5827H12.3023V18.4102H7.30635ZM16.8986 18.4102H14.001V10.7459C13.9967 10.5254 13.9076 10.315 13.7524 10.159C13.5971 10.003 13.3878 9.91352 13.1683 9.90923H6.507C6.2875 9.91352 6.07818 10.003 5.92294 10.159C5.7677 10.315 5.6786 10.5254 5.67434 10.7459V18.4102H3.09309V8.88844L10.0042 2.01065L16.8986 8.88844V18.4102Z" fill="#000000"/>
</g>
<defs>
<clipPath id="clip0_7_21">
<rect width="20" height="20" fill="white"/>
</clipPath>
</defs>
</svg>